<mxfile host="app.diagrams.net" modified="2023-09-29T16:17:11.554Z" agent="Mozilla/5.0 (X11; Linux x86_64; rv:103.0) Gecko/20100101 Firefox/103.0" version="21.8.0" etag="yjow6V97XL0bOtkJU04I" type="github">
  <diagram name="PÃ¡gina-1" id="V3Kxgf7JJ5gPNR-12Ld8">
    <mxGraphModel>
      <root>
        <mxCell id="0" />
        <mxCell id="1" parent="0" />
      </root>
    </mxGraphModel>
  </diagram>
</mxfile>
